<?xml version='1.0' encoding='utf-8'?>
<svg xmlns="http://www.w3.org/2000/svg" id="Ebene_1" data-name="Ebene 1" viewBox="0 0 800 800"><defs><clipPath id="clip-path"><circle cx="400" cy="400" r="400" style="fill:none"/></clipPath><linearGradient id="Unbenannter_Verlauf_31" x1="397.2506" y1="402.7447" x2="155.4971" y2="644.4982" gradientUnits="userSpaceOnUse"><stop offset="0"/><stop offset="1" stop-opacity="0"/></linearGradient></defs><title>sport2</title><circle cx="400" cy="400" r="400" style="fill:#1c8adb"/><g style="clip-path:url(#clip-path)"><path d="M313.5581,795.308l265.54-265.54A21.8128,21.8128,0,0,0,587,512.9653v-225.94a21.8683,21.8683,0,0,0-21.849-21.84H234.84a21.8013,21.8013,0,0,0-16.7982,7.8973L6.0623,485.0623C33.4642,698.3438,138.78,797.6379,313.5581,795.308Z" style="opacity:0.42;fill:url(#Unbenannter_Verlauf_31)"/><path d="M565.151,265.1856H234.84a21.86,21.86,0,0,0-21.84,21.84v225.94a21.8683,21.8683,0,0,0,21.84,21.849H565.151A21.8762,21.8762,0,0,0,587,512.9654v-225.94A21.8683,21.8683,0,0,0,565.151,265.1856ZM390.5071,443.1965a44.2141,44.2141,0,0,1,0-86.3936Zm18.9766-86.3936a44.212,44.212,0,0,1,0,86.3942Zm-177.5071-5.63H269.93v97.6534H231.9766Zm0,161.7921V467.8033h56.93V332.1967h-56.93V287.0254a2.871,2.871,0,0,1,2.8632-2.8632H390.5071v53.3751a63.1669,63.1669,0,0,0,0,124.9253v53.3751H234.84A2.873,2.873,0,0,1,231.9766,512.9654Zm336.0468-64.1386H530.07V351.1733h37.9532Zm-56.93-116.63V467.8033h56.93v45.1621a2.8749,2.8749,0,0,1-2.8724,2.8724H409.4837V462.4627a63.1653,63.1653,0,0,0,0-124.9253V284.1622H565.151a2.873,2.873,0,0,1,2.8724,2.8632v45.1713Z" style="fill:#fff"/></g></svg>